PathFileType	4	(X/Y/Z)	OpenSim_Sub05_CSBaseline_Magnet.trc
DataRate	CameraRate	NumFrames	NumMarkers	Units	OrigDataRate	OrigDataStartFrame	OrigNumFrames
100	100	30	8	m	100	5279	10557
Frame#	Time	torso_imu_offset_imu	pelvis_imu_offset_imu	tibia_r_imu_offset_imu	femur_r_imu_offset_imu	tibia_l_imu_offset_imu	femur_l_imu_offset_imu	toes_r_imu_offset_imu	toes_l_imu_offset_imu
				X1	Y1	Z1	X2	Y2	Z2	X3	Y3	Z3	X4	Y4	Z4	X5	Y5	Z5	X6	Y6	Z6	X7	Y7	Z7	X8		Y8	Z8	

5279	52.78000000	-0.91000038	-0.24011618	0.13502676	-0.68552115	0.21489326	-0.63037847	-0.53219096	-0.62512952	-0.08417345	-0.75827517	-0.38755311	0.09975601	-0.59459313	0.51086328	0.24021878	-0.65337595	0.10613021	0.15519420	-0.70916137	-0.14951206	-0.32649498	-0.72674123	-0.23265034	-0.26537035
5280	52.79000000	-0.90265353	-0.23464521	0.13415766	-0.68002252	0.21593377	-0.62878275	-0.52674853	-0.63054851	-0.08622195	-0.75548088	-0.39874720	0.09503060	-0.61659596	0.48759991	0.23967488	-0.65243984	0.10827360	0.15556632	-0.70685331	-0.14579411	-0.33002349	-0.71353521	-0.23893362	-0.29311053
5281	52.80000000	-0.90226369	-0.23309371	0.13616626	-0.68070284	0.21534414	-0.63251729	-0.52517807	-0.63723577	-0.08972073	-0.75149535	-0.40081049	0.09960283	-0.63513766	0.46420363	0.23629047	-0.65112233	0.10798244	0.16440920	-0.70967244	-0.15438359	-0.33087384	-0.70266299	-0.24167395	-0.32527174
5282	52.81000000	-0.90343977	-0.23414195	0.14108698	-0.68314309	0.21341130	-0.63628566	-0.52298440	-0.64107712	-0.08970790	-0.75023147	-0.40585523	0.10090941	-0.65140783	0.44451417	0.23311403	-0.65363381	0.11377234	0.16442981	-0.70964898	-0.15403795	-0.33250496	-0.69050982	-0.24683564	-0.34914106
5283	52.82000000	-0.89992747	-0.22601277	0.14474126	-0.68418059	0.21937737	-0.63343884	-0.51880081	-0.63869592	-0.09121251	-0.74883389	-0.41613059	0.09769167	-0.67215197	0.42128726	0.22268130	-0.65265554	0.11201452	0.16891172	-0.70649744	-0.15559049	-0.33251206	-0.67086234	-0.25159831	-0.36433474
5284	52.83000000	-0.90342123	-0.22320290	0.13991165	-0.68108603	0.21911128	-0.62862217	-0.50778122	-0.64456227	-0.09370908	-0.74499892	-0.41596192	0.09919910	-0.68083002	0.39885006	0.21803370	-0.64908791	0.11332677	0.16920444	-0.70753332	-0.16646130	-0.33677523	-0.65705101	-0.25832718	-0.38539507
5285	52.84000000	-0.90363297	-0.22466835	0.14722976	-0.67600306	0.22119810	-0.62443566	-0.50511150	-0.65026825	-0.09363960	-0.74042471	-0.41756829	0.10012138	-0.69411454	0.37395397	0.21665541	-0.64234509	0.11765065	0.17023698	-0.70947792	-0.17179585	-0.33142854	-0.64384055	-0.26943420	-0.40487225
5286	52.85000000	-0.89997118	-0.21920835	0.14168378	-0.67631335	0.22492817	-0.63083774	-0.50041018	-0.65573855	-0.09544968	-0.73750644	-0.42373806	0.09965784	-0.71119889	0.34776755	0.21181090	-0.64156002	0.11513911	0.16918213	-0.71226958	-0.17796426	-0.33775062	-0.63360218	-0.27570069	-0.42333110
5287	52.86000000	-0.90519719	-0.21710461	0.14581672	-0.67990065	0.22328970	-0.62734298	-0.48647321	-0.66094658	-0.09627131	-0.73659900	-0.42909924	0.09114457	-0.72110982	0.33087375	0.20700278	-0.64693116	0.11996589	0.18225857	-0.70878303	-0.17851507	-0.34029304	-0.62170726	-0.27764717	-0.43457441
5288	52.87000000	-0.90553697	-0.21771859	0.14581413	-0.67607797	0.22406516	-0.62458045	-0.48402864	-0.66413611	-0.10719535	-0.73765534	-0.42837444	0.09035249	-0.72905940	0.31143147	0.20849559	-0.64631635	0.12044643	0.18564152	-0.71071471	-0.18652179	-0.33805121	-0.60726272	-0.28175751	-0.44470011
5289	52.88000000	-0.90446210	-0.21644144	0.14491713	-0.67991101	0.22624533	-0.62377280	-0.47719836	-0.67255631	-0.11417112	-0.73312633	-0.42925336	0.09013851	-0.73784032	0.28796811	0.21281961	-0.64537504	0.11998354	0.18389434	-0.71093550	-0.19108817	-0.34056271	-0.59823988	-0.28276996	-0.45508521
5290	52.89000000	-0.90486765	-0.21173303	0.14723304	-0.68235141	0.22998135	-0.62104129	-0.47509981	-0.67385977	-0.10759261	-0.73713816	-0.44146204	0.08776491	-0.74315409	0.27262201	0.21267271	-0.64520710	0.11593865	0.18333245	-0.70830497	-0.19524581	-0.33922212	-0.59464182	-0.28401045	-0.45983547
5291	52.90000000	-0.90477073	-0.21398259	0.15211463	-0.68352322	0.23286444	-0.61964877	-0.45739876	-0.68119362	-0.11020174	-0.73576858	-0.44370253	0.08605218	-0.74680513	0.26052424	0.21039502	-0.64598055	0.11847316	0.19036618	-0.71610513	-0.20219684	-0.33879264	-0.58316174	-0.28581728	-0.46939135
5292	52.91000000	-0.90475944	-0.21498939	0.14896983	-0.68560982	0.23399421	-0.61392899	-0.44951477	-0.68926564	-0.11652748	-0.73474441	-0.44020465	0.08141248	-0.75198542	0.25647147	0.21147027	-0.64181780	0.11800800	0.19553258	-0.71551904	-0.20760746	-0.33427956	-0.57180351	-0.29138622	-0.47837225
5293	52.92000000	-0.90498519	-0.20817700	0.15176902	-0.68930492	0.24074405	-0.61964074	-0.44285800	-0.69571996	-0.11630985	-0.73105637	-0.44145662	0.07935837	-0.75111974	0.25143076	0.21607205	-0.64252535	0.11937060	0.19372918	-0.72226888	-0.21756902	-0.32753705	-0.56805117	-0.29442414	-0.47981977
5294	52.93000000	-0.90495749	-0.20864357	0.14633863	-0.68347286	0.23822683	-0.61543363	-0.42981390	-0.69851662	-0.12033887	-0.73309467	-0.44339295	0.07157981	-0.74996455	0.24666546	0.21815317	-0.64119963	0.11543300	0.19283025	-0.72871334	-0.22296764	-0.32118423	-0.57986919	-0.28709287	-0.47836913
5295	52.94000000	-0.90535227	-0.20576809	0.14269190	-0.68718545	0.24148196	-0.60566277	-0.41683680	-0.70340063	-0.11876782	-0.73415217	-0.44609189	0.06729395	-0.74893442	0.25141737	0.21492675	-0.64390344	0.10950162	0.19453677	-0.73499905	-0.23062309	-0.31611610	-0.58527170	-0.28254003	-0.47286152
5296	52.95000000	-0.90380743	-0.20744017	0.14521466	-0.68638085	0.24444570	-0.60505334	-0.40633981	-0.70988754	-0.12456507	-0.73785804	-0.44384847	0.06383228	-0.74454153	0.25876238	0.21897204	-0.64382850	0.10714031	0.19870455	-0.74440491	-0.23456029	-0.30156272	-0.59128266	-0.28253627	-0.46531247
5297	52.96000000	-0.91252294	-0.20978992	0.14631263	-0.68545089	0.24247587	-0.60113360	-0.39129649	-0.71682902	-0.12975654	-0.73544451	-0.43864654	0.05741226	-0.73289406	0.27549288	0.22328171	-0.64216977	0.10395329	0.20182498	-0.75801898	-0.23907555	-0.28749974	-0.60263627	-0.28314789	-0.44900378
5298	52.97000000	-0.90577910	-0.20738977	0.14248003	-0.68999185	0.25116363	-0.60173521	-0.38418713	-0.72916334	-0.12748552	-0.73832465	-0.43838896	0.04887906	-0.73336296	0.28426881	0.23057247	-0.64420595	0.09814977	0.20457474	-0.75980028	-0.24646950	-0.27307727	-0.61375991	-0.27973178	-0.43491573
5299	52.98000000	-0.90527547	-0.20815123	0.14120906	-0.69398856	0.25697962	-0.60231375	-0.36497211	-0.73590262	-0.12685609	-0.74429142	-0.43374439	0.05021996	-0.72548248	0.29801027	0.23642837	-0.64339658	0.10243684	0.21433273	-0.76950828	-0.24748038	-0.25017210	-0.62448242	-0.27733892	-0.42756283
5300	52.99000000	-0.90509621	-0.21059002	0.14027453	-0.68975576	0.26450417	-0.59484107	-0.34753293	-0.73896438	-0.13677028	-0.74650272	-0.42934995	0.03018212	-0.72406120	0.30373149	0.23738445	-0.64100198	0.10427716	0.21219102	-0.78486104	-0.25362450	-0.22254464	-0.62630305	-0.27236833	-0.42142611
5301	53.00000000	-0.89849389	-0.21254688	0.13749581	-0.68554897	0.26702240	-0.59872239	-0.32718635	-0.74652919	-0.14132189	-0.75107528	-0.41907341	0.02920971	-0.72085843	0.31020827	0.24696880	-0.63891320	0.10803218	0.21591004	-0.78976738	-0.26165623	-0.18838163	-0.63059624	-0.27597361	-0.41119381
5302	53.01000000	-0.90314299	-0.21459416	0.13768582	-0.68689760	0.26916523	-0.60115652	-0.30561450	-0.75355935	-0.14454633	-0.76230868	-0.40915583	0.02205587	-0.71540663	0.31621408	0.24945555	-0.63743520	0.11770007	0.21785304	-0.79862894	-0.26447751	-0.15226603	-0.63804349	-0.27144716	-0.40102129
5303	53.02000000	-0.90357895	-0.21712049	0.13288485	-0.68957270	0.27559834	-0.59127291	-0.29085490	-0.76065018	-0.14684050	-0.76542387	-0.40124286	-0.00083715	-0.70863765	0.32195735	0.25322687	-0.63295748	0.12091960	0.22115714	-0.80536908	-0.26869444	-0.10763428	-0.64345199	-0.27452351	-0.39634017
5304	53.03000000	-0.90254668	-0.21738971	0.12860757	-0.69070100	0.27801328	-0.59433373	-0.27103985	-0.77165275	-0.15150053	-0.77723879	-0.39223452	-0.01372568	-0.69767635	0.32724633	0.26008066	-0.63435273	0.12762231	0.22047961	-0.80686408	-0.28205127	-0.06710600	-0.64438826	-0.27730392	-0.39876423
5305	53.04000000	-0.90106809	-0.21918925	0.13023071	-0.68716588	0.27335994	-0.59641349	-0.25177402	-0.77512680	-0.14710887	-0.78615301	-0.37594424	-0.01913903	-0.70019727	0.33121944	0.26688580	-0.63166492	0.13418409	0.22278775	-0.80981817	-0.29141866	-0.01887874	-0.64451462	-0.27796019	-0.39471285
5306	53.05000000	-0.90017581	-0.21956432	0.13103408	-0.68401140	0.27720183	-0.58807827	-0.22927492	-0.78249959	-0.14361353	-0.78873184	-0.35631770	-0.02825909	-0.69510913	0.33635448	0.27017224	-0.63044749	0.13470679	0.22607459	-0.80492754	-0.29475873	0.02292461	-0.64157400	-0.28127593	-0.38773226
5307	53.06000000	-0.90054997	-0.22227956	0.13005779	-0.68473759	0.28029446	-0.59264477	-0.20925262	-0.78379460	-0.13370335	-0.80096975	-0.34056804	-0.04751565	-0.69095688	0.34773854	0.27080119	-0.62746633	0.13630333	0.22910958	-0.80243329	-0.30397835	0.07118957	-0.64801915	-0.27822042	-0.38990243
5308	53.07000000	-0.89826517	-0.22797540	0.12412631	-0.68912785	0.27580714	-0.59176341	-0.18851881	-0.79291259	-0.11872206	-0.80591658	-0.32747598	-0.05534059	-0.68566185	0.34985290	0.27705931	-0.62579457	0.13958017	0.23783229	-0.79128739	-0.31253959	0.11025919	-0.65332247	-0.27621288	-0.38462924
